<svg width="28" height="26" viewBox="0 0 28 26" fill="none" xmlns="http://www.w3.org/2000/svg">
<path d="M26.9898 4.85973C26.8258 4.63492 26.564 4.50188 26.2858 4.50188H6.68045C6.64247 4.50188 6.60455 4.50419 6.56802 4.50911L5.76116 2.18323C5.67754 1.94268 5.49339 1.75094 5.25673 1.65777L1.19036 0.0603441C0.742201 -0.115115 0.236488 0.105014 0.0604822 0.552626C-0.11522 1.00048 0.104848 1.5065 0.552764 1.6825L4.24597 3.13334L8.76651 16.1635C8.56699 16.2331 8.39791 16.3862 8.32091 16.6003L7.01387 20.231C6.93377 20.4536 6.96677 20.701 7.10309 20.8944C7.23922 21.0879 7.46063 21.2031 7.69705 21.2031H8.36825C7.9523 21.6659 7.69705 22.2755 7.69705 22.9458C7.69705 24.3873 8.86989 25.5599 10.3111 25.5599C11.7524 25.5599 12.9252 24.3873 12.9252 22.9458C12.9252 22.2755 12.6699 21.6659 12.254 21.2031H17.9533C17.5372 21.6659 17.2818 22.2755 17.2818 22.9458C17.2818 24.3873 18.4544 25.5599 19.896 25.5599C21.3374 25.5599 22.51 24.3873 22.51 22.9458C22.51 22.2755 22.2548 21.6659 21.8389 21.2031H22.6553C23.0564 21.2031 23.3814 20.878 23.3814 20.4769C23.3814 20.0758 23.0563 19.7508 22.6553 19.7508H8.73023L9.5397 17.5024C9.64423 17.5464 9.75715 17.5724 9.87536 17.5724H22.6551C23.034 17.5724 23.3693 17.3276 23.4847 16.9671L27.1154 5.63935C27.2005 5.37413 27.1538 5.08453 26.9898 4.85973ZM10.3111 24.1076C9.67037 24.1076 9.14934 23.5865 9.14934 22.9458C9.14934 22.305 9.67037 21.7839 10.3111 21.7839C10.9519 21.7839 11.4729 22.305 11.4729 22.9458C11.4729 23.5865 10.9519 24.1076 10.3111 24.1076ZM19.8959 24.1076C19.2552 24.1076 18.7341 23.5865 18.7341 22.9458C18.7341 22.305 19.2552 21.7839 19.8959 21.7839C20.5366 21.7839 21.0577 22.305 21.0577 22.9458C21.0577 23.5865 20.5366 24.1076 19.8959 24.1076ZM24.4634 8.20517H20.017V6.24462H25.0917L24.4634 8.20517ZM23.183 12.1989H20.017V9.94785H23.9046L23.183 12.1989ZM14.2562 12.1989V9.94785H18.2742V12.1989H14.2562ZM18.2742 13.9417V15.8296H14.2562V13.9417H18.2742ZM8.4548 9.94785H12.5136V12.1989H9.23582L8.4548 9.94785ZM14.2562 8.20517V6.24462H18.2742V8.20517H14.2562ZM12.5136 6.24462V8.20517H7.85002L7.16988 6.24462H12.5136ZM9.84054 13.9417H12.5136V15.8296H10.4955L9.84054 13.9417ZM20.017 15.8297V13.9418H22.6248L22.0198 15.8297H20.017Z" fill="black"/>
</svg>
