<svg width="20" height="20" viewBox="0 0 20 20" fill="none" xmlns="http://www.w3.org/2000/svg">
<path d="M18.6207 20H1.3793C0.620703 20 0 19.3793 0 18.6207V1.3793C0 0.620703 0.620703 0 1.3793 0H18.6207C19.3793 0 20 0.620703 20 1.3793V18.6207C20 19.3793 19.3793 20 18.6207 20Z" fill="#4D6FA9"/>
<path d="M16.8966 3.44828V6.89656H13.7931C13.4138 6.89656 13.1035 7.20691 13.1035 7.58621V9.6552H16.5518V13.1035H13.1035V20H9.65521V13.1034H6.89658V9.65516H9.65521V7.58617C9.65521 5.41375 11.3104 3.62066 13.4483 3.44824H16.8966V3.44828Z" fill="white"/>
</svg>
