<svg width="22" height="22" viewBox="0 0 22 22" fill="none" xmlns="http://www.w3.org/2000/svg">
<path d="M21.6234 3.935C21.4231 2.05881 19.9414 0.576721 18.065 0.376648C13.3596 -0.125549 8.64041 -0.125549 3.93517 0.376648C2.05881 0.576889 0.576889 2.05881 0.376648 3.935C-0.125549 8.64024 -0.125549 13.3596 0.376648 18.0648C0.576889 19.9412 2.05881 21.4231 3.935 21.6234C8.64024 22.1255 13.3596 22.1255 18.065 21.6234C19.9414 21.4231 21.4231 19.9412 21.6234 18.0648C22.1255 13.3596 22.1255 8.64041 21.6234 3.935Z" fill="url(#paint0_radial)"/>
<path d="M20.4268 4.73075C20.2492 3.06588 18.9343 1.7508 17.2692 1.57305C13.0939 1.12759 8.90611 1.12759 4.73075 1.57305C3.06588 1.7508 1.7508 3.06588 1.57305 4.73075C1.12759 8.90611 1.12759 13.0939 1.57305 17.2691C1.7508 18.9341 3.06588 20.2492 4.73075 20.4268C8.90611 20.8724 13.0939 20.8724 17.2691 20.4268C18.9341 20.2492 20.2492 18.9341 20.4268 17.2691C20.8724 13.0939 20.8724 8.90611 20.4268 4.73075Z" fill="url(#paint1_linear)"/>
<path d="M0.329651 17.6088C0.344757 17.7609 0.360367 17.9129 0.376648 18.065C0.576889 19.9412 2.05881 21.4231 3.93517 21.6234C8.64041 22.1255 13.3598 22.1255 18.065 21.6234C19.9414 21.4231 21.4231 19.9412 21.6234 18.065C21.6396 17.9129 21.6552 17.7609 21.6705 17.6088H0.329651Z" fill="url(#paint2_linear)"/>
<path d="M21.6234 18.0648C21.8933 15.5365 22.0178 13.0042 21.9977 10.4723L16.969 5.44359C16.3407 4.72638 15.4231 4.27873 14.3449 4.23996C12.1274 4.16006 9.90297 4.16409 7.68521 4.2403C5.84326 4.30374 4.55521 5.54178 4.22488 7.3614C4.16664 7.68266 4.13173 8.00812 4.08591 8.33173V13.6662C4.11125 13.8391 4.14851 14.0112 4.1601 14.185C4.23395 15.2918 4.68881 16.2398 5.4171 16.8812L10.5344 21.9983C13.0457 22.0159 15.5572 21.8911 18.065 21.6233C19.9414 21.4231 21.4231 19.9412 21.6234 18.0648Z" fill="url(#paint3_linear)"/>
<path d="M21.6233 18.065C21.4233 19.941 19.941 21.4233 18.065 21.6234C15.5575 21.8909 13.0455 22.0159 10.5345 21.9983L5.42496 16.8887C6.01729 17.4072 6.78938 17.7229 7.68535 17.7567C9.9026 17.8399 12.1276 17.8377 14.3448 17.7578C16.3503 17.6853 17.8015 16.2011 17.8641 14.1956C17.9309 12.0663 17.9309 9.93149 17.8641 7.80219C17.8355 6.87701 17.5108 6.06296 16.9723 5.44696L21.9978 10.4725C22.0176 13.0041 21.8931 15.5367 21.6233 18.065Z" fill="url(#paint4_linear)"/>
<path d="M13.5959 8.61775C12.9517 7.91632 12.0274 7.47623 11 7.47623C9.05399 7.47623 7.47623 9.05399 7.47623 11C7.47623 12.0274 7.91632 12.9517 8.61775 13.5959L16.7706 21.7487C17.2021 21.7111 17.6336 21.6693 18.0648 21.6234C19.9412 21.4231 21.4231 19.9412 21.6234 18.0648C21.6693 17.6336 21.7111 17.2021 21.7487 16.7706L13.5959 8.61775Z" fill="url(#paint5_linear)"/>
<path d="M21.9574 13.3698L15.3959 6.80853C15.2428 6.60762 15.0016 6.4772 14.7295 6.4772C14.2666 6.4772 13.8911 6.85251 13.8911 7.3156C13.8911 7.58768 14.0216 7.82887 14.2225 7.98195L21.84 15.5997C21.8917 14.8566 21.9308 14.1132 21.9574 13.3698Z" fill="url(#paint6_linear)"/>
<path d="M4.08591 8.33173C4.13173 8.00812 4.16664 7.68266 4.22488 7.3614C4.55504 5.54178 5.84326 4.30374 7.68521 4.2403C9.90297 4.16409 12.1274 4.16006 14.3449 4.23996C16.3496 4.31213 17.8015 5.79657 17.8641 7.802C17.9307 9.93147 17.9307 12.0661 17.8641 14.1956C17.8015 16.201 16.3501 17.6853 14.345 17.7577C12.1276 17.8377 9.90263 17.8397 7.68538 17.7565C5.68028 17.6811 4.2942 16.1933 4.1601 14.1849C4.14851 14.0112 4.11125 13.8389 4.08591 13.6661C4.08591 11.8879 4.08591 10.1097 4.08591 8.33173ZM11.0019 16.5691C12.0167 16.5691 13.0325 16.5995 14.0459 16.5621C15.6349 16.5032 16.6123 15.5548 16.6494 13.9673C16.6954 11.9893 16.6954 10.0085 16.6494 8.03027C16.6123 6.44312 15.6343 5.47263 14.0459 5.43889C12.0299 5.39626 10.0117 5.39659 7.99573 5.43889C6.41948 5.47195 5.43925 6.42281 5.39645 7.99251C5.34207 9.99559 5.34207 12.0022 5.39645 14.0053C5.43925 15.5748 6.41948 16.5037 7.9959 16.5621C8.9966 16.5993 9.99982 16.5691 11.0019 16.5691Z" fill="url(#paint7_linear)"/>
<path d="M4.08591 8.33173C4.13173 8.00812 4.16664 7.68266 4.22488 7.3614C4.55504 5.54178 5.84326 4.30374 7.68521 4.2403C9.90297 4.16409 12.1274 4.16006 14.3449 4.23996C16.3496 4.31213 17.8015 5.79657 17.8641 7.802C17.9307 9.93147 17.9307 12.0661 17.8641 14.1956C17.8015 16.201 16.3501 17.6853 14.345 17.7577C12.1276 17.8377 9.90263 17.8397 7.68538 17.7565C5.68028 17.6811 4.2942 16.1933 4.1601 14.1849C4.14851 14.0112 4.11125 13.8389 4.08591 13.6661C4.08591 11.8879 4.08591 10.1097 4.08591 8.33173ZM11.0019 16.5691C12.0167 16.5691 13.0325 16.5995 14.0459 16.5621C15.6349 16.5032 16.6123 15.5548 16.6494 13.9673C16.6954 11.9893 16.6954 10.0085 16.6494 8.03027C16.6123 6.44312 15.6343 5.47263 14.0459 5.43889C12.0299 5.39626 10.0117 5.39659 7.99573 5.43889C6.41948 5.47195 5.43925 6.42281 5.39645 7.99251C5.34207 9.99559 5.34207 12.0022 5.39645 14.0053C5.43925 15.5748 6.41948 16.5037 7.9959 16.5621C8.9966 16.5993 9.99982 16.5691 11.0019 16.5691Z" fill="white"/>
<path d="M11 7.47641C9.05399 7.47641 7.47623 9.054 7.47623 11C7.47623 12.9462 9.05399 14.5238 11 14.5238C12.9462 14.5238 14.5238 12.9462 14.5238 11C14.5238 9.054 12.9462 7.47641 11 7.47641ZM11 13.3106C9.72386 13.3106 8.68942 12.2762 8.68942 11C8.68942 9.72388 9.72386 8.68944 11 8.68944C12.2761 8.68944 13.3106 9.72388 13.3106 11C13.3106 12.2762 12.2761 13.3106 11 13.3106Z" fill="white"/>
<path d="M15.5678 7.3156C15.5678 7.77852 15.1925 8.15382 14.7295 8.15382C14.2666 8.15382 13.8911 7.77852 13.8911 7.3156C13.8911 6.85251 14.2666 6.4772 14.7295 6.4772C15.1925 6.4772 15.5678 6.85251 15.5678 7.3156Z" fill="white"/>
<defs>
<radialGradient id="paint0_radial" cx="0" cy="0" r="1" gradientUnits="userSpaceOnUse" gradientTransform="translate(4.50988 19.2263) scale(24.2621)">
<stop stop-color="#FAE100"/>
<stop offset="0.0544" stop-color="#FADC04"/>
<stop offset="0.1167" stop-color="#FBCE0E"/>
<stop offset="0.1829" stop-color="#FCB720"/>
<stop offset="0.2514" stop-color="#FE9838"/>
<stop offset="0.3054" stop-color="#FF7950"/>
<stop offset="0.4922" stop-color="#FF1C74"/>
<stop offset="1" stop-color="#6C1CD1"/>
</radialGradient>
<linearGradient id="paint1_linear" x1="8.43788" y1="9.55881" x2="-28.8327" y2="-11.4059" gradientUnits="userSpaceOnUse">
<stop stop-color="#A1B5D8" stop-opacity="0"/>
<stop offset="0.3094" stop-color="#90A2BD" stop-opacity="0.309804"/>
<stop offset="0.7554" stop-color="#7C8B9C" stop-opacity="0.756863"/>
<stop offset="1" stop-color="#748290"/>
</linearGradient>
<linearGradient id="paint2_linear" x1="11" y1="19.4204" x2="11" y2="22.8497" gradientUnits="userSpaceOnUse">
<stop stop-color="#FAE100" stop-opacity="0"/>
<stop offset="0.3068" stop-color="#FCA800" stop-opacity="0.305882"/>
<stop offset="0.6275" stop-color="#FE7300" stop-opacity="0.627451"/>
<stop offset="0.8685" stop-color="#FF5200" stop-opacity="0.866667"/>
<stop offset="1" stop-color="#FF4500"/>
</linearGradient>
<linearGradient id="paint3_linear" x1="9.74844" y1="9.71728" x2="4.3038" y2="4.27263" gradientUnits="userSpaceOnUse">
<stop stop-color="#833AB4" stop-opacity="0"/>
<stop offset="1" stop-color="#833AB4"/>
</linearGradient>
<linearGradient id="paint4_linear" x1="15.0777" y1="20.1217" x2="12.3602" y2="7.3106" gradientUnits="userSpaceOnUse">
<stop stop-color="#833AB4" stop-opacity="0"/>
<stop offset="1" stop-color="#833AB4"/>
</linearGradient>
<linearGradient id="paint5_linear" x1="16.1118" y1="16.1118" x2="5.19669" y2="5.19668" gradientUnits="userSpaceOnUse">
<stop stop-color="#833AB4" stop-opacity="0"/>
<stop offset="1" stop-color="#833AB4"/>
</linearGradient>
<linearGradient id="paint6_linear" x1="16.9214" y1="9.5074" x2="13.312" y2="5.89799" gradientUnits="userSpaceOnUse">
<stop stop-color="#833AB4" stop-opacity="0"/>
<stop offset="1" stop-color="#833AB4"/>
</linearGradient>
<linearGradient id="paint7_linear" x1="15.3681" y1="6.66227" x2="6.46864" y2="15.5618" gradientUnits="userSpaceOnUse">
<stop stop-color="#833AB4"/>
<stop offset="0.0922" stop-color="#9C3495"/>
<stop offset="0.2927" stop-color="#DC2546"/>
<stop offset="0.392" stop-color="#FD1D1D"/>
<stop offset="0.5589" stop-color="#FC6831"/>
<stop offset="0.6887" stop-color="#FC9B40"/>
<stop offset="0.7521" stop-color="#FCAF45"/>
<stop offset="0.7806" stop-color="#FDB750"/>
<stop offset="0.8656" stop-color="#FECB6A"/>
<stop offset="0.9415" stop-color="#FFD87A"/>
<stop offset="1" stop-color="#FFDC80"/>
</linearGradient>
</defs>
</svg>
