<svg width="30" height="27" viewBox="0 0 30 27" fill="none" xmlns="http://www.w3.org/2000/svg">
<path d="M5.59819 22.3929C5.59819 23.4229 6.43326 24.2589 7.46426 24.2589H26.125C27.156 24.2589 27.991 23.4229 27.991 22.3929V3.73214C27.991 2.70114 27.156 1.86607 26.125 1.86607H7.46426C6.43326 1.86607 5.59819 2.70114 5.59819 3.73214V6.53125H3.73212V3.73214C3.73212 1.67107 5.40319 0 7.46426 0H26.125C28.186 0 29.8571 1.67107 29.8571 3.73214V22.3929C29.8571 24.4539 28.186 26.125 26.125 26.125H7.46426C5.40319 26.125 3.73212 24.4539 3.73212 22.3929V19.5937H5.59819V22.3929ZM0.933014 12.1295H21.0735L16.1816 7.23758C15.8168 6.87373 15.8168 6.28215 16.1816 5.9183C16.5464 5.55348 17.137 5.55348 17.5009 5.9183L23.9379 12.3562C24.1329 12.5502 24.216 12.8077 24.2029 13.0625C24.216 13.3172 24.1329 13.5748 23.9389 13.7688L17.5019 20.2058C17.138 20.5706 16.5464 20.5706 16.1826 20.2058C15.8178 19.8419 15.8178 19.2504 16.1826 18.8865L21.0735 13.9955H0.933014C0.417978 13.9955 -2.28882e-05 13.5775 -2.28882e-05 13.0625C-2.28882e-05 12.5475 0.417978 12.1295 0.933014 12.1295Z" fill="black"/>
</svg>
