<svg width="50" height="30" viewBox="0 0 50 30" fill="none" xmlns="http://www.w3.org/2000/svg">
<path d="M25 26.1111C28.0159 23.4127 29.9206 19.4445 29.9206 15C29.9206 10.5556 28.0159 6.66667 25 3.88889C22.381 1.50794 18.8095 0 15 0C6.74603 0 0 6.74603 0 15C0 23.254 6.74603 29.9206 15 29.9206C18.8095 30 22.381 28.4921 25 26.1111Z" fill="#07A9E2"/>
<path d="M0 15C0 23.254 6.74603 29.9206 15 29.9206C18.8889 29.9206 22.381 28.4921 25 26.0318C28.0159 23.3333 29.9206 19.3651 29.9206 14.9206C29.9206 10.4762 28.0159 6.66667 25 3.88889C22.381 1.50794 18.8095 0 15 0" fill="#009DDD"/>
<path d="M25 3.88889C22.3809 1.50794 18.8095 0 15 0C14.7619 0 14.5238 0 14.2857 0C9.60315 3.4127 6.58728 8.88889 6.58728 15C6.58728 21.1111 9.60315 26.5873 14.2063 29.9206C14.4444 29.9206 14.6825 29.9206 14.9206 29.9206C18.8095 29.9206 22.3016 28.4921 24.9206 26.0318C27.9365 23.3333 29.8413 19.3651 29.8413 14.9206C29.8413 10.4762 28.0159 6.66667 25 3.88889Z" fill="#0284CC"/>
<path d="M35.0793 0C31.1904 0 27.6984 1.42857 25 3.88889C24.4444 4.36508 23.9682 4.92064 23.492 5.47619H26.5079C26.9047 5.95238 27.3016 6.50794 27.619 7.06349H22.3016C21.9841 7.61905 21.6666 8.09524 21.4285 8.65079H28.492C28.7301 9.20635 28.9682 9.68254 29.127 10.2381H20.873C20.7142 10.7937 20.5555 11.2698 20.3968 11.8254H29.6031C29.8412 12.8571 29.9206 13.8889 29.9206 15C29.9206 16.6667 29.6825 18.254 29.127 19.7619H20.873C21.0317 20.3175 21.2698 20.7937 21.5079 21.3492H28.5714C28.3333 21.9048 28.0158 22.4603 27.6984 22.9365H22.3809C22.6984 23.4921 23.0952 24.0476 23.492 24.5238H26.5079C26.0317 25.0794 25.5555 25.6349 25 26.1111C27.6984 28.4921 31.1904 30 35.0793 30C43.3333 30 50 23.3333 50 15.0794C50 6.74603 43.3333 0 35.0793 0Z" fill="#FF2957"/>
<path d="M35.0793 0C31.1904 0 27.6984 1.42857 25 3.88889C24.4444 4.36508 23.9682 4.92064 23.492 5.47619H26.5079C26.9047 5.95238 27.3016 6.50794 27.619 7.06349H22.3016C21.9841 7.61905 21.6666 8.09524 21.4285 8.65079H28.492C28.7301 9.20635 28.9682 9.68254 29.127 10.2381H20.873C20.7142 10.7937 20.5555 11.2698 20.3968 11.8254H29.6031C29.8412 12.8571 29.9206 13.8889 29.9206 15C29.9206 16.6667 29.6825 18.254 29.127 19.7619H20.873C21.0317 20.3175 21.2698 20.7937 21.5079 21.3492H28.5714C28.3333 21.9048 28.0158 22.4603 27.6984 22.9365H22.3809C22.6984 23.4921 23.0952 24.0476 23.492 24.5238H26.5079C26.0317 25.0794 25.5555 25.6349 25 26.1111C27.6984 28.4921 31.1904 30 35.0793 30C43.3333 30 50 23.3333 50 15.0794" fill="#ED1C2E"/>
<path d="M25 26.1111C28.0159 23.4127 29.9206 19.4445 29.9206 15C29.9206 10.5556 28.0159 6.66669 25 3.88892V26.1111Z" fill="#0466B5"/>
<path d="M44.8412 18.254C44.8412 18.0159 45.0793 17.7778 45.3174 17.7778C45.5555 17.7778 45.7936 18.0159 45.7936 18.254C45.7936 18.4921 45.5555 18.7302 45.3174 18.7302C45.0793 18.7302 44.8412 18.4921 44.8412 18.254ZM45.3174 18.6508C45.5555 18.6508 45.6349 18.4921 45.6349 18.254C45.6349 18.0159 45.4762 17.9365 45.3174 17.9365C45.0793 17.9365 44.9206 18.0952 44.9206 18.254C44.9206 18.4127 45.1587 18.6508 45.3174 18.6508ZM45.3174 18.4127H45.2381V18.0159H45.3968C45.4762 18.0159 45.4762 18.0159 45.4762 18.0159L45.5555 18.0952C45.5555 18.1746 45.5555 18.1746 45.4762 18.1746L45.5555 18.3333H45.4762L45.3968 18.1746H45.3174V18.4127ZM45.3174 18.1746C45.3968 18.1746 45.3968 18.1746 45.3968 18.1746C45.3968 18.1746 45.3968 18.1746 45.3968 18.0952H45.3174V18.1746Z" fill="white"/>
<path d="M25 3.88892C24.4444 4.36511 23.9682 4.92067 23.492 5.47623H26.5079C26.9047 5.95242 27.3016 6.50797 27.619 7.06353H22.3016C21.9841 7.61908 21.6666 8.09527 21.4285 8.65083H28.492C28.7301 9.20638 28.9682 9.68258 29.127 10.2381H20.873C20.7142 10.7937 20.5555 11.2699 20.3968 11.8254H29.6031C29.8412 12.8572 29.9206 13.8889 29.9206 15C29.9206 16.6667 29.6825 18.254 29.127 19.7619H20.873C21.0317 20.3175 21.2698 20.7937 21.5079 21.3492H28.5714C28.3333 21.9048 28.0158 22.4604 27.6984 22.9365H22.3809C22.6984 23.4921 23.0952 24.0477 23.492 24.5238H26.5079C26.0317 25.0794 25.5555 25.635 25 26.1111C27.6984 28.4921 31.1904 30 35.0793 30C35.3174 30 35.5555 30 35.7936 30C40.3968 26.6667 43.4127 21.1905 43.4127 15.0794C43.4127 8.96829 40.3968 3.4921 35.7936 0.158764C35.5555 0.158764 35.3174 0.158764 35.0793 0.158764C31.1904 3.37362e-05 27.6984 1.50797 25 3.88892Z" fill="#D1094B"/>
<path d="M13.0952 18.7302H11.1905L12.3016 12.9365L9.76191 18.7302H8.09524L7.77778 12.9365L6.66667 18.7302H5L6.42857 11.1111H9.36508L9.52381 15.873L11.5873 11.1111H14.6032L13.0952 18.7302Z" fill="white"/>
<path d="M11.2699 15.3968L12.381 12.9365L11.508 17.5397C11.5873 17.9365 11.6667 18.4127 11.8254 18.8095H13.0953L14.5238 11.1905H11.746C11.4286 12.381 11.1905 13.7302 11.1905 15.0794C11.2699 15.1587 11.2699 15.2381 11.2699 15.3968Z" fill="#DCE5E5"/>
<path d="M33.8889 18.6508C33.3333 18.8095 33.0158 18.8889 32.5397 18.8889C31.5873 18.8889 31.1111 18.4127 31.1111 17.5397C31.1111 17.381 31.1111 17.2222 31.1904 16.9841L31.2698 16.3492L31.3492 15.873L32.2222 11.1905H34.0476L33.8095 12.6191H34.7619L34.5238 14.0476H33.5714L33.0952 16.5873C33.0952 16.6667 33.0158 16.8254 33.0158 16.8254C33.0158 17.1429 33.2539 17.3016 33.6508 17.3016C33.8889 17.3016 34.0476 17.3016 34.127 17.2222L33.8889 18.6508Z" fill="#DCE5E5"/>
<path d="M39.3651 12.6191C39.2063 12.5397 39.2063 12.5397 39.127 12.5397C39.0476 12.5397 38.9682 12.5397 38.9682 12.4603C38.8889 12.4603 38.8889 12.4603 38.7302 12.4603C38.0952 12.4603 37.6984 12.6984 37.1429 13.4921L37.3016 12.5397H35.6349L34.5238 18.7302H36.4286C37.0635 14.9206 37.3809 14.2857 38.254 14.2857C38.3333 14.2857 38.4127 14.2857 38.4921 14.2857L38.7302 14.3651L39.3651 12.6191Z" fill="#DCE5E5"/>
<path d="M26.5079 14.5238C26.5079 15.3175 26.9841 15.873 27.9365 16.1905C28.7301 16.5079 28.8095 16.5873 28.8095 16.9048C28.8095 17.3016 28.4921 17.4603 27.6984 17.4603C27.1428 17.4603 26.5873 17.381 26.0317 17.2222L25.7936 18.6508H25.873L26.1905 18.7302C26.2698 18.7302 26.5079 18.7302 26.6667 18.7302C27.1428 18.8095 27.4603 18.8095 27.6984 18.8095C29.6825 18.8095 30.6349 18.1746 30.6349 16.746C30.6349 15.873 30.2381 15.3968 29.2857 15C28.4921 14.6826 28.4127 14.6032 28.4127 14.3651C28.4127 14.0476 28.7301 13.8889 29.3651 13.8889C29.6825 13.8889 30.2381 13.8889 30.7143 13.9683L30.9524 12.5397C30.4762 12.4603 29.7619 12.4603 29.2857 12.4603C27.2222 12.4603 26.5079 13.4127 26.5079 14.5238Z" fill="#DCE5E5"/>
<path d="M19.127 18.7302H17.6191V18.0953C17.1429 18.5715 16.5079 18.8096 15.6349 18.8096C14.6032 18.8096 13.9683 18.0953 13.9683 17.1429C13.9683 15.635 15.1587 14.7619 17.2222 14.7619C17.4603 14.7619 17.6984 14.7619 18.0159 14.7619C18.0952 14.5238 18.0952 14.4445 18.0952 14.3651C18.0952 13.9683 17.7778 13.8096 16.9048 13.8096C16.3492 13.8096 15.7937 13.8889 15.3968 13.9683L15.1587 14.0476H15L15.2381 12.6984C16.1905 12.4603 16.746 12.381 17.4603 12.381C19.0476 12.381 19.9206 13.0159 19.9206 14.2064C19.9206 14.5238 19.9206 14.7619 19.7619 15.4762L19.3651 17.6984L19.2857 18.0953L19.2064 18.4127V18.6508L19.127 18.7302ZM17.7778 15.9524C17.5397 15.9524 17.4603 15.9524 17.381 15.9524C16.3492 15.9524 15.7937 16.2699 15.7937 16.9048C15.7937 17.3016 16.0318 17.5397 16.4286 17.5397C17.2222 17.5397 17.7778 16.9048 17.7778 15.9524Z" fill="#DCE5E5"/>
<path d="M25.2381 18.5715C24.6031 18.7302 23.9682 18.8096 23.3333 18.8096C21.2698 18.8096 20.1587 17.8572 20.1587 16.0318C20.1587 13.8889 21.5079 12.381 23.4127 12.381C24.9206 12.381 25.873 13.254 25.873 14.6032C25.873 15.0794 25.7936 15.4762 25.6349 16.1111H21.9047C21.9047 16.1905 21.9047 16.2699 21.9047 16.3492C21.9047 17.0635 22.4603 17.4603 23.492 17.4603C24.2063 17.4603 24.7619 17.381 25.3968 17.0635L25.2381 18.5715ZM24.2857 14.9207C24.2857 14.8413 24.2857 14.6826 24.2857 14.6032C24.2857 14.127 23.9682 13.8096 23.4127 13.8096C22.8571 13.8096 22.3809 14.2064 22.2222 14.9207H24.2857Z" fill="#DCE5E5"/>
<path d="M45.1587 15.9524C44.8413 18.0159 43.4127 18.8889 41.5079 18.8889C39.4444 18.8889 38.5714 17.6191 38.5714 16.0318C38.5714 13.8889 40 12.381 42.2222 12.381C44.127 12.381 45.1587 13.6508 45.1587 15.1588C45.1587 15.5556 45.1587 15.5556 45.1587 15.9524ZM43.1746 15.1588C43.1746 14.5238 42.9365 13.9683 42.1428 13.9683C41.1905 13.9683 40.6349 15.0794 40.6349 16.1111C40.6349 16.9048 41.0317 17.4603 41.6667 17.4603C42.0635 17.4603 42.9365 16.9048 43.0952 15.9524C43.1746 15.635 43.1746 15.3969 43.1746 15.1588Z" fill="white"/>
<path d="M38.6508 16.7461C38.7301 16.1905 38.8095 15.5556 38.8095 15C38.8095 14.9207 38.8095 14.8413 38.8095 14.8413C38.7301 15.2381 38.6508 15.635 38.6508 16.1112C38.5714 16.2699 38.5714 16.508 38.6508 16.7461Z" fill="white"/>
</svg>
