<svg width="50" height="30" viewBox="0 0 50 30" fill="none" xmlns="http://www.w3.org/2000/svg">
<path d="M15.0609 0C6.8898 0.0516525 0.274048 6.71386 0.274048 14.914C0.274048 23.1464 6.94091 29.8271 15.1564 29.8271C19.0101 29.8271 22.5248 28.355 25.1692 25.9413L25.1686 25.9407H25.1707C25.7132 25.4463 26.2183 24.9115 26.6821 24.3435H23.6338C23.2263 23.8511 22.8561 23.3367 22.5238 22.8065H27.7816C28.1027 22.2942 28.391 21.7619 28.6493 21.2107H21.6568C21.4181 20.6984 21.2109 20.1763 21.0345 19.6441H29.2716C29.7691 18.1572 30.0375 16.5661 30.0375 14.914C30.0375 13.8168 29.9183 12.7491 29.6949 11.7194H20.5974C20.7109 11.1892 20.8525 10.6661 21.0213 10.1533H29.2624C29.0784 9.60613 28.8641 9.07389 28.6207 8.55641H21.6558C21.9069 8.01802 22.1916 7.49603 22.5092 6.98975H27.7638C27.4136 6.43087 27.027 5.89712 26.6093 5.39399H23.6796C24.1331 4.85861 24.6311 4.35507 25.1715 3.88828C22.5281 1.47346 19.013 0.000409715 15.1572 0.000409715C15.1237 -2.2519e-07 15.092 0 15.0609 0Z" fill="#931B1D"/>
<path d="M49.9999 14.9187C50.0014 23.1542 43.3423 29.8323 35.1211 29.8348C26.9035 29.8374 20.2392 23.1618 20.2368 14.9248V14.9187C20.2342 6.68066 26.8954 0.00205072 35.1146 1.01489e-06C43.3332 -0.00300521 49.998 6.67301 50 14.9105C49.9999 14.9105 49.9999 14.9142 49.9999 14.9187Z" fill="#F16622"/>
<path d="M49.9999 15.0834C50.0014 23.3193 43.3423 29.9985 35.1211 30C26.9035 30.003 20.2392 23.3266 20.2368 15.091V15.0834C20.2342 6.84686 26.8954 0.1677 35.1146 0.16565C43.3332 0.162644 49.998 6.83866 50 15.0756C49.9999 15.0757 49.9999 15.0804 49.9999 15.0834Z" fill="#F7981D"/>
<path d="M15.0609 0.169326C6.8898 0.221935 0.274048 6.88264 0.274048 15.0834C0.274048 23.3163 6.94091 29.9974 15.1564 29.9974C19.0101 29.9974 22.5248 28.5243 25.1692 26.111L25.1686 26.1095H25.1707C25.7132 25.6155 26.2183 25.0823 26.6821 24.5123H23.6338C23.2263 24.0209 22.8561 23.5075 22.5238 22.9773H27.7816C28.1027 22.4645 28.391 21.9307 28.6493 21.38H21.6568C21.4181 20.8672 21.2109 20.3452 21.0345 19.8139H29.2716C29.7691 18.326 30.0375 16.7354 30.0375 15.0834C30.0375 13.9866 29.9183 12.9185 29.6949 11.8892H20.5974C20.7109 11.3596 20.8525 10.8354 21.0213 10.3231H29.2624C29.0784 9.77559 28.8641 9.24321 28.6207 8.72532H21.6558C21.9069 8.18898 22.1916 7.66494 22.5092 7.15921H27.7638C27.4136 6.60088 27.027 6.06754 26.6093 5.56236H23.6796C24.1331 5.02807 24.6311 4.52439 25.1715 4.05665C22.5281 1.64224 19.013 0.169189 15.1572 0.169189C15.1237 0.169326 15.092 0.169326 15.0609 0.169326Z" fill="#CB2026"/>
<path d="M20.5072 18.8803L20.7061 17.5309C20.5978 17.5309 20.4382 17.577 20.2976 17.577C19.7463 17.577 19.685 17.2834 19.7208 17.0662L20.1661 14.3118H21.0042L21.2067 12.8182H20.4167L20.5778 11.8907H18.9929C18.9586 11.9254 18.0573 17.1126 18.0573 17.743C18.0573 18.6782 18.5803 19.0948 19.3196 19.0887C19.8972 19.0834 20.3487 18.9233 20.5072 18.8803Z" fill="white"/>
<path d="M21.0098 16.307C21.0098 18.5511 22.487 19.0848 23.7463 19.0848C24.909 19.0848 25.4198 18.8236 25.4198 18.8236L25.6995 17.2918C25.6995 17.2918 24.8156 17.6845 24.0169 17.6845C22.3158 17.6845 22.6139 16.4124 22.6139 16.4124H25.8345C25.8345 16.4124 26.0416 15.3827 26.0416 14.9634C26.0416 13.9178 25.5211 12.6426 23.7821 12.6426C22.1884 12.643 21.0098 14.3625 21.0098 16.307ZM23.7888 14.0639C24.6826 14.0639 24.5174 15.0711 24.5174 15.1524H22.7585C22.7579 15.0487 22.9242 14.0639 23.7888 14.0639Z" fill="white"/>
<path d="M33.8215 18.8803L34.1053 17.1475C34.1053 17.1475 33.3276 17.5402 32.7943 17.5402C31.6705 17.5402 31.22 16.6781 31.22 15.7557C31.22 13.8803 32.1869 12.8484 33.2642 12.8484C34.0711 12.8484 34.7194 13.3035 34.7194 13.3035L34.9776 11.6223C34.9776 11.6223 34.0169 11.2316 33.1937 11.2316C31.3643 11.2316 29.5839 12.8203 29.5839 15.8093C29.5839 17.7881 30.5456 19.0974 32.4364 19.0974C32.9706 19.0977 33.8215 18.8803 33.8215 18.8803Z" fill="white"/>
<path d="M11.7927 12.6671C10.7062 12.6671 9.87321 13.0164 9.87321 13.0164L9.64364 14.3846C9.64364 14.3846 10.3318 14.1055 11.3703 14.1055C11.9604 14.1055 12.3913 14.1715 12.3913 14.6526C12.3913 14.9441 12.3387 15.0519 12.3387 15.0519C12.3387 15.0519 11.874 15.0125 11.6582 15.0125C10.2885 15.0125 8.84863 15.5985 8.84863 17.3665C8.84863 18.7583 9.79245 19.0783 10.378 19.0783C11.4962 19.0783 11.9767 18.3518 12.0034 18.3486L11.9512 18.956H13.3461L13.9688 14.5818C13.9688 12.7268 12.3535 12.6671 11.7927 12.6671ZM12.1327 16.2268C12.1629 16.4942 11.965 17.7468 11.0109 17.7468C10.519 17.7468 10.3907 17.3695 10.3907 17.1465C10.3907 16.7124 10.6264 16.1904 11.788 16.1904C12.0575 16.1904 12.0866 16.2201 12.1327 16.2268Z" fill="white"/>
<path d="M15.452 19.0449C15.8083 19.0449 17.8485 19.1365 17.8485 17.0268C17.8485 15.0542 15.9603 15.4433 15.9603 14.6508C15.9603 14.2576 16.2682 14.1318 16.8305 14.1318C17.0539 14.1318 17.9134 14.2039 17.9134 14.2039L18.1138 12.801C18.1138 12.801 17.5576 12.6772 16.6525 12.6772C15.4792 12.6772 14.2903 13.1445 14.2903 14.7494C14.2903 16.5692 16.2742 16.3851 16.2742 17.151C16.2742 17.6623 15.7194 17.7043 15.292 17.7043C14.5537 17.7043 13.8885 17.4501 13.8853 17.4619L13.6742 18.849C13.7111 18.862 14.1221 19.0449 15.452 19.0449Z" fill="white"/>
<path d="M46.946 11.4086L46.605 13.5336C46.605 13.5336 46.0082 12.709 45.0752 12.709C43.6226 12.709 42.4129 14.4627 42.4129 16.4788C42.4129 17.7801 43.0576 19.0537 44.3779 19.0537C45.3273 19.0537 45.8524 18.3906 45.8524 18.3906L45.7834 18.9566H47.3245L48.5358 11.4052L46.946 11.4086ZM46.2107 15.5538C46.2107 16.3919 45.7956 17.511 44.937 17.511C44.3664 17.511 44.1001 17.0314 44.1001 16.2787C44.1001 15.0485 44.6513 14.2345 45.3466 14.2345C45.9178 14.2346 46.2107 14.6283 46.2107 15.5538Z" fill="white"/>
<path d="M3.21248 18.9632L4.1783 13.2622L4.31891 18.9632H5.41099L7.44744 13.2622L6.54502 18.9632H8.16688L9.41706 11.4036H6.90823L5.34622 16.0411L5.26492 11.4036H2.95326L1.68573 18.9632H3.21248Z" fill="white"/>
<path d="M27.6261 18.974C28.0873 16.3464 28.1727 14.2117 29.274 14.6009C29.4668 13.5843 29.6524 13.1912 29.862 12.7602C29.862 12.7602 29.7639 12.7393 29.5562 12.7393C28.8481 12.7393 28.3219 13.7107 28.3219 13.7107L28.4619 12.819H26.9863L25.999 18.974H27.6261Z" fill="white"/>
<path d="M37.4772 12.6671C36.3907 12.6671 35.5583 13.0164 35.5583 13.0164L35.3292 14.3846C35.3292 14.3846 36.0159 14.1055 37.0554 14.1055C37.6449 14.1055 38.0769 14.1715 38.0769 14.6526C38.0769 14.9441 38.0238 15.0519 38.0238 15.0519C38.0238 15.0519 37.559 15.0125 37.3416 15.0125C35.9713 15.0125 34.5331 15.5985 34.5331 17.3665C34.5331 18.7583 35.4775 19.0783 36.0625 19.0783C37.1807 19.0783 37.6618 18.3518 37.6874 18.3486L37.6357 18.956H39.0315L39.6538 14.5818C39.6544 12.7268 38.0396 12.6671 37.4772 12.6671ZM37.8177 16.2268C37.8479 16.4942 37.651 17.7468 36.6954 17.7468C36.2041 17.7468 36.0767 17.3695 36.0767 17.1465C36.0767 16.7124 36.3124 16.1904 37.472 16.1904C37.7431 16.1904 37.7713 16.2201 37.8177 16.2268Z" fill="white"/>
<path d="M40.9279 18.974C41.3897 16.3464 41.4751 14.2117 42.5763 14.6009C42.7691 13.5843 42.9547 13.1912 43.1654 12.7602C43.1654 12.7602 43.0656 12.7393 42.8592 12.7393C42.149 12.7393 41.6244 13.7107 41.6244 13.7107L41.7656 12.819H40.289L39.3011 18.9735H40.9281L40.9279 18.974Z" fill="white"/>
</svg>
