<svg width="53" height="15" viewBox="0 0 53 15" fill="none" xmlns="http://www.w3.org/2000/svg">
<path fill-rule="evenodd" clip-rule="evenodd" d="M14.03 2.80402e-07V0.00643606C14.0236 0.00643606 11.9963 2.45505e-07 11.4557 1.93717C10.9601 3.71344 9.56357 8.61751 9.52495 8.75266H9.1388C9.1388 8.75266 7.71006 3.73919 7.20807 1.93073C6.66747 -0.00643556 4.63376 2.80402e-07 4.63376 2.80402e-07H0V14.7379H4.63376V5.98527H4.82683H5.01991L7.72293 14.7379H10.9408L13.6438 5.99171H14.03V14.7379H18.6638V2.80402e-07H14.03Z" fill="#4DB45E"/>
<path fill-rule="evenodd" clip-rule="evenodd" d="M30.9561 0C30.9561 0 29.5982 0.12228 28.961 1.54459L25.6788 8.75266H25.2926V0H20.6589V14.7379H25.0352C25.0352 14.7379 26.4575 14.6092 27.0947 13.1933L30.3125 5.98527H30.6987V14.7379H35.3324V0H30.9561Z" fill="#4DB45E"/>
<path fill-rule="evenodd" clip-rule="evenodd" d="M37.3919 6.69318V14.7379H42.0257V10.0398H47.0456C49.2337 10.0398 51.0872 8.64322 51.7759 6.69318H37.3919Z" fill="#4DB45E"/>
<path fill-rule="evenodd" clip-rule="evenodd" d="M47.0456 0H36.7419C37.2567 2.806 39.3612 5.05852 42.0836 5.7922C42.7014 5.95953 43.3514 6.04963 44.0207 6.04963H51.9625C52.0333 5.71497 52.0655 5.37387 52.0655 5.01991C52.0655 2.24609 49.8194 0 47.0456 0Z" fill="url(#paint0_linear)"/>
<defs>
<linearGradient id="paint0_linear" x1="36.7431" y1="3.02482" x2="52.0655" y2="3.02482" gradientUnits="userSpaceOnUse">
<stop offset="0.3" stop-color="#00B4E6"/>
<stop offset="1" stop-color="#088CCB"/>
</linearGradient>
</defs>
</svg>
