<svg width="50" height="16" viewBox="0 0 50 16" fill="none" xmlns="http://www.w3.org/2000/svg">
<path d="M18.3339 15.0062L20.8736 0.72052H24.8419L22.3815 15.0062H18.3339Z" fill="#3C58BF"/>
<path d="M18.3339 15.0062L21.5879 0.72052H24.8419L22.3815 15.0062H18.3339Z" fill="#293688"/>
<path d="M36.7466 0.879244C35.953 0.561784 34.6831 0.244324 33.0958 0.244324C29.1276 0.244324 26.2704 2.22845 26.2704 5.08559C26.2704 7.22845 28.2546 8.33956 29.8419 9.05385C31.4292 9.76814 31.9054 10.2443 31.9054 10.8792C31.9054 11.8316 30.6355 12.3078 29.5244 12.3078C27.9371 12.3078 27.0641 12.0697 25.7149 11.5142L25.1593 11.2761L24.6038 14.53C25.5561 14.9269 27.3022 15.3237 29.1276 15.3237C33.3339 15.3237 36.1117 13.3396 36.1117 10.3237C36.1117 8.65703 35.08 7.38718 32.699 6.35544C31.2704 5.64115 30.3974 5.24433 30.3974 4.53004C30.3974 3.89512 31.1117 3.2602 32.699 3.2602C34.0482 3.2602 35.0006 3.49829 35.7149 3.81575L36.1117 3.97448L36.7466 0.879244Z" fill="#3C58BF"/>
<path d="M36.7466 0.879244C35.953 0.561784 34.6831 0.244324 33.0958 0.244324C29.1276 0.244324 26.9847 2.22845 26.9847 5.08559C26.9847 7.22845 28.2546 8.33956 29.8419 9.05385C31.4292 9.76814 31.9054 10.2443 31.9054 10.8792C31.9054 11.8316 30.6355 12.3078 29.5244 12.3078C27.9371 12.3078 27.0641 12.0697 25.7149 11.5142L25.1593 11.2761L24.6038 14.53C25.5561 14.9269 27.3022 15.3237 29.1276 15.3237C33.3339 15.3237 36.1117 13.3396 36.1117 10.3237C36.1117 8.65703 35.08 7.38718 32.699 6.35544C31.2704 5.64115 30.3974 5.24433 30.3974 4.53004C30.3974 3.89512 31.1117 3.2602 32.699 3.2602C34.0482 3.2602 35.0006 3.49829 35.7149 3.81575L36.1117 3.97448L36.7466 0.879244Z" fill="#293688"/>
<path d="M43.5721 0.72052C42.6197 0.72052 41.9054 0.799886 41.5086 1.75227L35.5562 15.0062H39.8419L40.6356 12.6253H45.7149L46.1911 15.0062H50.0007L46.6673 0.72052H43.5721ZM41.7467 10.2443C41.9848 9.53005 43.334 6.03798 43.334 6.03798C43.334 6.03798 43.6515 5.16497 43.8896 4.60941L44.1276 5.95862C44.1276 5.95862 44.9213 9.53005 45.08 10.3237H41.7467V10.2443Z" fill="#3C58BF"/>
<path d="M44.5245 0.72052C43.5721 0.72052 42.8578 0.799886 42.461 1.75227L35.5562 15.0062H39.8419L40.6356 12.6253H45.7149L46.1911 15.0062H50.0007L46.6673 0.72052H44.5245ZM41.7467 10.2443C42.0642 9.45068 43.334 6.03798 43.334 6.03798C43.334 6.03798 43.6515 5.16497 43.8896 4.60941L44.1276 5.95862C44.1276 5.95862 44.9213 9.53005 45.08 10.3237H41.7467V10.2443Z" fill="#293688"/>
<path d="M11.0324 10.7206L10.6356 8.65707C9.92129 6.27612 7.6197 3.65707 5.08002 2.38723L8.65145 15.0857H12.9372L19.3657 0.799927H15.08L11.0324 10.7206Z" fill="#3C58BF"/>
<path d="M11.0324 10.7206L10.6356 8.65707C9.92129 6.27612 7.6197 3.65707 5.08002 2.38723L8.65145 15.0857H12.9372L19.3657 0.799927H15.8737L11.0324 10.7206Z" fill="#293688"/>
<path d="M0.000610352 0.72052L0.714896 0.879251C5.79426 2.06973 9.28633 5.0856 10.6355 8.65703L9.20696 1.911C8.96887 0.958615 8.25458 0.72052 7.38157 0.72052H0.000610352Z" fill="#FFBC00"/>
<path d="M0.000610352 0.72052C5.07998 1.911 9.28633 5.00624 10.6355 8.57767L9.28633 2.94274C9.04823 1.99036 8.25458 1.43481 7.38157 1.43481L0.000610352 0.72052Z" fill="#F7981D"/>
<path d="M0.000610352 0.72052C5.07998 1.911 9.28633 5.00624 10.6355 8.57767L9.68316 5.48243C9.44506 4.53005 9.1276 3.57766 8.01649 3.18084L0.000610352 0.72052Z" fill="#ED7C00"/>
<path d="M15.0006 10.2443L12.3022 7.5459L11.0324 10.5618L10.7149 8.57765C10.0006 6.19669 7.69905 3.57764 5.15936 2.3078L8.73079 15.0062H13.0165L15.0006 10.2443Z" fill="#051244"/>
<path d="M22.3815 15.0062L18.9688 11.5142L18.3339 15.0062H22.3815Z" fill="#051244"/>
<path d="M31.5085 10.0856C31.826 10.403 31.9847 10.6411 31.9054 10.9586C31.9054 11.911 30.6355 12.3872 29.5244 12.3872C27.9371 12.3872 27.0641 12.1491 25.7149 11.5935L25.1593 11.3554L24.6038 14.6094C25.5561 15.0062 27.3022 15.403 29.1276 15.403C31.6673 15.403 33.7307 14.6887 34.9212 13.4189L31.5085 10.0856Z" fill="#051244"/>
<path d="M36.1118 15.0063H39.8419L40.6356 12.6253H45.7149L46.1911 15.0063H50.0007L48.6514 9.21261L43.8895 4.60944L44.1276 5.87928C44.1276 5.87928 44.9213 9.45071 45.08 10.2444H41.7467C42.0641 9.45071 43.334 6.03801 43.334 6.03801C43.334 6.03801 43.6514 5.16499 43.8895 4.60944" fill="#051244"/>
</svg>
