<svg width="30" height="17" viewBox="0 0 30 17" fill="none" xmlns="http://www.w3.org/2000/svg">
<path d="M25.8192 10.8094C26.8144 11.7823 27.8646 12.6976 28.7572 13.7686C29.1515 14.2446 29.5247 14.7357 29.8103 15.288C30.215 16.0732 29.8484 16.9372 29.1454 16.9841L24.7749 16.9821C23.6477 17.0757 22.7484 16.6213 21.9923 15.8496C21.3872 15.2324 20.8268 14.5756 20.245 13.9376C20.0065 13.6768 19.7568 13.4314 19.4586 13.2375C18.862 12.8497 18.3441 12.9684 18.0031 13.5915C17.6559 14.2253 17.5771 14.927 17.543 15.6333C17.4962 16.6638 17.1851 16.9348 16.1513 16.9819C13.942 17.0863 11.8453 16.7516 9.8975 15.6356C8.18024 14.6518 6.84864 13.2628 5.68954 11.6905C3.43293 8.62877 1.70471 5.26438 0.151512 1.80576C-0.198116 1.02653 0.0575865 0.608256 0.916217 0.593412C2.34197 0.56566 3.76756 0.567655 5.19501 0.591417C5.77451 0.599925 6.15812 0.932714 6.38189 1.48089C7.15327 3.38017 8.09716 5.18716 9.28192 6.86208C9.59744 7.30799 9.91918 7.75396 10.3773 8.0678C10.8841 8.41531 11.27 8.30014 11.5084 7.73477C11.6597 7.37629 11.726 6.99016 11.7601 6.60627C11.873 5.28538 11.8879 3.96672 11.6898 2.65046C11.5682 1.82899 11.1061 1.29719 10.2875 1.14176C9.86979 1.0625 9.93196 0.90684 10.1342 0.668102C10.4855 0.256339 10.8159 0 11.4745 0H16.4139C17.1915 0.153663 17.3641 0.503468 17.4706 1.28692L17.4748 6.78082C17.4663 7.0841 17.6261 7.98419 18.1717 8.18491C18.6083 8.32783 18.8961 7.97803 19.1582 7.7008C20.3408 6.44398 21.1848 4.95863 21.9388 3.4206C22.2735 2.74428 22.5612 2.04197 22.8401 1.34019C23.0467 0.819476 23.3709 0.563254 23.9566 0.574578L28.7104 0.578802C28.8514 0.578802 28.994 0.580856 29.1306 0.604267C29.9316 0.740973 30.1511 1.08602 29.9037 1.8693C29.5139 3.09819 28.7554 4.12232 28.0138 5.15114C27.221 6.24954 26.3731 7.3104 25.5869 8.41531C24.8646 9.42448 24.922 9.93305 25.8192 10.8094Z" fill="#436EAB"/>
</svg>
